/* XPM */
static char * maximize_active_xpm[] = {
"20 18 43 1",
" 	c None",
".	c #353535",
"+	c #425641",
"@	c #329335",
"#	c #28B82F",
"$	c #24CB30",
"%	c #339334",
"&	c #405642",
"*	c #397A3B",
"=	c #23C92E",
"-	c #33E442",
";	c #39EA49",
">	c #397D3A",
",	c #27D333",
"'	c #27D434",
")	c #387C39",
"!	c #405540",
"~	c #23CA2F",
"{	c #405840",
"]	c #319234",
"^	c #33E543",
"/	c #309533",
"(	c #27B62F",
"_	c #27BA2E",
":	c #24CB2F",
"<	c #23CB30",
"[	c #23CB2F",
"}	c #27B62E",
"|	c #26BA2E",
"1	c #2F9132",
"2	c #2F9431",
"3	c #3B4D3B",
"4	c #23C72D",
"5	c #3C543C",
"6	c #347836",
"7	c #26D434",
"8	c #347A36",
"9	c #22C92D",
"0	c #347B35",
"a	c #384939",
"b	c #2D9231",
"c	c #25B82D",
"d	c #2D9230",
"....................",
"....................",
"......+@#$$#%&......",
".....*=-;;;;-=>.....",
"....*,;;;;;;;;')....",
"...!=;;;;;;;;;;~{...",
"...]-;;;;;;;;;;^/...",
"...(;;;;;;;;;;;;_...",
"...:;;;;;;;;;;;;<...",
"...[;;;;;;;;;;;;<...",
"...};;;;;;;;;;;;|...",
"...1-;;;;;;;;;;^2...",
"...34;;;;;;;;;;=5...",
"....6,;;;;;;;;78....",
".....69-;;;;-90.....",
"......abc[[cda......",
"....................",
"...................."};
